<?xml version="1.0" encoding="UTF-8" standalone="no"?>
<!-- Created with Inkscape (http://www.inkscape.org/) -->

<svg
   xmlns:dc="http://purl.org/dc/elements/1.1/"
   xmlns:cc="http://creativecommons.org/ns#"
   xmlns:rdf="http://www.w3.org/1999/02/22-rdf-syntax-ns#"
   xmlns:svg="http://www.w3.org/2000/svg"
   xmlns="http://www.w3.org/2000/svg"
   xmlns:sodipodi="http://sodipodi.sourceforge.net/DTD/sodipodi-0.dtd"
   xmlns:inkscape="http://www.inkscape.org/namespaces/inkscape"
   width="210mm"
   height="90mm"
   viewBox="0 0 210 90"
   version="1.1"
   id="svg8"
   inkscape:version="0.92.2 2405546, 2018-03-11"
   sodipodi:docname="thumb.svg">
  <defs
     id="defs2">
    <marker
       inkscape:isstock="true"
       style="overflow:visible"
       id="marker2187"
       refX="0"
       refY="0"
       orient="auto"
       inkscape:stockid="TriangleOutM">
      <path
         transform="scale(0.4)"
         style="fill:#37474f;fill-opacity:0.94117647;fill-rule:evenodd;stroke:#37474f;stroke-width:1.00000003pt;stroke-opacity:0.94117647"
         d="M 5.77,0 -2.88,5 V -5 Z"
         id="path2185"
         inkscape:connector-curvature="0" />
    </marker>
    <marker
       inkscape:stockid="TriangleOutM"
       orient="auto"
       refY="0"
       refX="0"
       id="TriangleOutM"
       style="overflow:visible"
       inkscape:isstock="true"
       inkscape:collect="always">
      <path
         id="path1116"
         d="M 5.77,0 -2.88,5 V -5 Z"
         style="fill:#37474f;fill-opacity:0.94117647;fill-rule:evenodd;stroke:#37474f;stroke-width:1.00000003pt;stroke-opacity:0.94117647"
         transform="scale(0.4)"
         inkscape:connector-curvature="0" />
    </marker>
    <marker
       inkscape:stockid="TriangleOutL"
       orient="auto"
       refY="0"
       refX="0"
       id="marker1371"
       style="overflow:visible"
       inkscape:isstock="true">
      <path
         id="path1369"
         d="M 5.77,0 -2.88,5 V -5 Z"
         style="fill:#000000;fill-opacity:1;fill-rule:evenodd;stroke:#000000;stroke-width:1.00000003pt;stroke-opacity:1"
         transform="scale(0.8)"
         inkscape:connector-curvature="0" />
    </marker>
    <marker
       inkscape:stockid="Arrow2Lend"
       orient="auto"
       refY="0"
       refX="0"
       id="Arrow2Lend"
       style="overflow:visible"
       inkscape:isstock="true">
      <path
         id="path992"
         style="fill:#000000;fill-opacity:1;fill-rule:evenodd;stroke:#000000;stroke-width:0.625;stroke-linejoin:round;stroke-opacity:1"
         d="M 8.7185878,4.0337352 -2.2072895,0.01601326 8.7185884,-4.0017078 c -1.7454984,2.3720609 -1.7354408,5.6174519 -6e-7,8.035443 z"
         transform="matrix(-1.1,0,0,-1.1,-1.1,0)"
         inkscape:connector-curvature="0" />
    </marker>
    <marker
       inkscape:stockid="TriangleOutL"
       orient="auto"
       refY="0"
       refX="0"
       id="TriangleOutL"
       style="overflow:visible"
       inkscape:isstock="true">
      <path
         id="path1113"
         d="M 5.77,0 -2.88,5 V -5 Z"
         style="fill:#000000;fill-opacity:1;fill-rule:evenodd;stroke:#000000;stroke-width:1.00000003pt;stroke-opacity:1"
         transform="scale(0.8)"
         inkscape:connector-curvature="0" />
    </marker>
    <marker
       inkscape:stockid="Arrow1Lend"
       orient="auto"
       refY="0"
       refX="0"
       id="Arrow1Lend"
       style="overflow:visible"
       inkscape:isstock="true">
      <path
         id="path974"
         d="M 0,0 5,-5 -12.5,0 5,5 Z"
         style="fill:#000000;fill-opacity:1;fill-rule:evenodd;stroke:#000000;stroke-width:1.00000003pt;stroke-opacity:1"
         transform="matrix(-0.8,0,0,-0.8,-10,0)"
         inkscape:connector-curvature="0" />
    </marker>
  </defs>
  <sodipodi:namedview
     id="base"
     pagecolor="#ffffff"
     bordercolor="#666666"
     borderopacity="1.0"
     inkscape:pageopacity="0.0"
     inkscape:pageshadow="2"
     inkscape:zoom="1.2561668"
     inkscape:cx="279.04752"
     inkscape:cy="59.444025"
     inkscape:document-units="mm"
     inkscape:current-layer="layer1"
     showgrid="false"
     inkscape:window-width="1920"
     inkscape:window-height="1051"
     inkscape:window-x="0"
     inkscape:window-y="0"
     inkscape:window-maximized="1" />
  <metadata
     id="metadata5">
    <rdf:RDF>
      <cc:Work
         rdf:about="">
        <dc:format>image/svg+xml</dc:format>
        <dc:type
           rdf:resource="http://purl.org/dc/dcmitype/StillImage" />
        <dc:title />
      </cc:Work>
    </rdf:RDF>
  </metadata>
  <g
     inkscape:label="Layer 1"
     inkscape:groupmode="layer"
     id="layer1"
     transform="translate(0,-207)">
    <path
       style="fill:#ffffff;fill-opacity:1;stroke:none;stroke-width:1.00437582;stroke-linecap:square;stroke-linejoin:miter;stroke-miterlimit:4;stroke-dasharray:none;stroke-opacity:1;paint-order:normal"
       d="m 0,207 h 210 v 90 H 0 Z"
       id="rect877" />
    <path
       inkscape:connector-curvature="0"
       id="path2719"
       d="m 34.120995,226.28561 -11.585448,11.58545 v 46.14474 h 37.14814 v -57.73019 z"
       style="fill:#37474f;fill-opacity:1;stroke:#ffffff;stroke-width:1.15733957;stroke-linecap:square;stroke-linejoin:miter;stroke-miterlimit:4;stroke-dasharray:none;stroke-opacity:1;paint-order:normal" />
    <path
       style="fill:#37474f;fill-opacity:1;stroke:#ffffff;stroke-width:1.15733957;stroke-linecap:square;stroke-linejoin:miter;stroke-miterlimit:4;stroke-dasharray:none;stroke-opacity:1;paint-order:normal"
       d="M 29.491636,221.65625 17.906188,233.2417 v 46.14474 h 37.14814 v -57.73019 z"
       id="rect954"
       inkscape:connector-curvature="0" />
    <g
       aria-label="{}"
       style="font-style:normal;font-variant:normal;font-weight:bold;font-stretch:normal;font-size:20.19573975px;line-height:1.25;font-family:'Fira Mono';-inkscape-font-specification:'Fira Mono Bold';letter-spacing:0px;word-spacing:0px;fill:#ffffff;fill-opacity:1;stroke:none;stroke-width:0.75734013"
       id="text967">
      <path
         d="m 33.798171,240.62545 c -3.716016,0 -5.129718,0.98959 -4.826782,3.73621 l 0.302936,2.888 c 0.161566,1.51468 -1.070374,1.97918 -2.787012,1.97918 v 2.58505 c 1.736834,0 2.948578,0.4645 2.787012,1.97919 l -0.302936,2.90818 c -0.28274,2.70623 1.110766,3.71602 4.826782,3.71602 v -2.22153 c -1.23194,0 -1.979183,-0.26255 -1.878204,-1.27234 l 0.302936,-2.98896 c 0.242349,-2.28212 -0.969395,-3.08995 -3.13034,-3.41308 2.03977,-0.30294 3.372689,-1.15116 3.13034,-3.41308 l -0.302936,-2.98897 c -0.100979,-1.00979 0.626068,-1.27234 1.878204,-1.27234 z"
         style="font-style:normal;font-variant:normal;font-weight:bold;font-stretch:normal;font-family:'Fira Mono';-inkscape-font-specification:'Fira Mono Bold';fill:#ffffff;stroke-width:0.75734013"
         id="path884" />
      <path
         d="m 39.162349,240.62545 v 2.22153 c 1.23194,0 1.979182,0.26255 1.878204,1.27234 l -0.302936,2.98897 c -0.242349,2.28211 0.989591,3.08994 3.150535,3.41308 -2.059965,0.30293 -3.392884,1.15115 -3.150535,3.41308 l 0.302936,2.98896 c 0.100978,1.00979 -0.626068,1.27234 -1.878204,1.27234 v 2.22153 c 3.716016,0 5.129718,-0.98959 4.826782,-3.73621 l -0.302936,-2.88799 c -0.161566,-1.51469 1.09057,-1.97919 2.787012,-1.97919 v -2.58505 c -1.716638,0 -2.948578,-0.4645 -2.787012,-1.97918 l 0.302936,-2.90819 c 0.28274,-2.70623 -1.110766,-3.71602 -4.826782,-3.71602 z"
         style="font-style:normal;font-variant:normal;font-weight:bold;font-stretch:normal;font-family:'Fira Mono';-inkscape-font-specification:'Fira Mono Bold';fill:#ffffff;stroke-width:0.75734013"
         id="path886" />
    </g>
    <path
       style="fill:none;fill-opacity:1;stroke:#37474f;stroke-width:1.79362726;stroke-linecap:butt;stroke-linejoin:miter;stroke-miterlimit:4;stroke-dasharray:none;stroke-opacity:0.94117647;marker-end:url(#TriangleOutM)"
       d="M 62.00894,252.26937 H 83.628552"
       id="path969"
       inkscape:connector-curvature="0"
       sodipodi:nodetypes="cc" />
    <path
       style="fill:#37474f;fill-opacity:1;stroke:none;stroke-width:0.69273549;stroke-linecap:square;stroke-linejoin:miter;stroke-miterlimit:4;stroke-dasharray:none;stroke-opacity:1;paint-order:normal"
       d="m 111.13303,255.84272 -1.03528,0.0325 c -0.44881,0.0142 -0.79856,0.38709 -0.78437,0.8359 l 0.0403,1.2663 a 7.6099822,7.6099822 0 0 0 -1.25319,0.38336 L 107.43,257.2799 c -0.23669,-0.38159 -0.73462,-0.498 -1.1162,-0.26131 l -0.88021,0.54568 c -0.38158,0.23668 -0.498,0.73461 -0.2613,1.11619 l 0.67089,1.08184 a 7.6099822,7.6099822 0 0 0 -0.90191,0.95028 l -1.1153,-0.59765 c -0.39577,-0.21211 -0.88555,-0.0644 -1.09767,0.33138 l -0.48916,0.91321 c -0.21211,0.39578 -0.064,0.8851 0.33184,1.09721 l 1.12299,0.60173 a 7.6099822,7.6099822 0 0 0 -0.30064,1.27353 l -1.27128,0.0402 c -0.44881,0.0142 -0.79901,0.38664 -0.78482,0.83545 l 0.033,1.03528 c 0.0142,0.44881 0.38664,0.79856 0.83546,0.78436 l 1.26631,-0.0402 a 7.6099822,7.6099822 0 0 0 0.38336,1.25318 l -1.08049,0.67045 c -0.38159,0.23669 -0.49846,0.73462 -0.26176,1.1162 l 0.54612,0.88021 c 0.2367,0.38158 0.73462,0.49801 1.11621,0.26131 l 1.08184,-0.6709 a 7.6099822,7.6099822 0 0 0 0.95029,0.90191 l -0.59766,1.1153 c -0.21212,0.39577 -0.0644,0.88554 0.33137,1.09767 l 0.91277,0.48915 c 0.39577,0.21212 0.8851,0.0639 1.09721,-0.33183 l 0.60172,-1.12343 a 7.6099822,7.6099822 0 0 0 1.27353,0.30063 l 0.0402,1.27172 c 0.0142,0.44881 0.3871,0.79901 0.83591,0.78482 l 1.03527,-0.033 c 0.4488,-0.0142 0.79856,-0.38664 0.78437,-0.83545 l -0.0403,-1.2663 a 7.6099822,7.6099822 0 0 0 1.25318,-0.38382 l 0.67045,1.08094 c 0.23669,0.38158 0.73416,0.49845 1.11575,0.26176 l 0.88021,-0.54613 c 0.38158,-0.23669 0.49845,-0.73461 0.26175,-1.11619 l -0.6709,-1.08184 a 7.6099822,7.6099822 0 0 0 0.90192,-0.95029 l 1.1153,0.59766 c 0.39578,0.21211 0.88509,0.0644 1.0972,-0.33138 l 0.48916,-0.91276 c 0.21212,-0.39578 0.0644,-0.8851 -0.33137,-1.09721 l -1.12389,-0.60218 a 7.6099822,7.6099822 0 0 0 0.30109,-1.27308 l 1.27172,-0.0402 c 0.44881,-0.0142 0.79856,-0.3871 0.78437,-0.83591 l -0.0326,-1.03528 c -0.0142,-0.44881 -0.3871,-0.79855 -0.83591,-0.78436 l -1.26628,0.0402 a 7.6099822,7.6099822 0 0 0 -0.38337,-1.25319 l 1.08093,-0.67044 c 0.38159,-0.23669 0.498,-0.73415 0.26131,-1.11574 l -0.54612,-0.88021 c -0.2367,-0.38159 -0.73417,-0.49846 -1.11575,-0.26176 l -1.08184,0.67135 a 7.6099822,7.6099822 0 0 0 -0.95029,-0.90236 l 0.59766,-1.1153 c 0.21212,-0.39578 0.0644,-0.8851 -0.33137,-1.09722 l -0.91322,-0.48915 c -0.39577,-0.21212 -0.88509,-0.0644 -1.09721,0.33138 l -0.60218,1.12343 a 7.6099822,7.6099822 0 0 0 -1.27307,-0.30064 l -0.0402,-1.27172 c -0.0142,-0.4488 -0.38666,-0.79855 -0.83546,-0.78436 z"
       id="path2145"
       inkscape:connector-curvature="0" />
    <path
       transform="rotate(-1.8111071)"
       style="fill:#ffffff;fill-opacity:1;stroke:none;stroke-width:0.45909092;stroke-linecap:square;stroke-linejoin:miter;stroke-miterlimit:4;stroke-dasharray:none;stroke-opacity:1;paint-order:normal"
       d="m 107.51701,268.79587 a 5.0433021,5.0433021 0 0 1 -5.0433,5.0433 5.0433021,5.0433021 0 0 1 -5.043303,-5.0433 5.0433021,5.0433021 0 0 1 5.043303,-5.0433 5.0433021,5.0433021 0 0 1 5.0433,5.0433 z"
       id="circle2171" />
    <path
       sodipodi:nodetypes="cc"
       inkscape:connector-curvature="0"
       id="path2183"
       d="m 123.99566,252.26937 h 21.61961"
       style="fill:none;fill-opacity:1;stroke:#37474f;stroke-width:1.79362726;stroke-linecap:butt;stroke-linejoin:miter;stroke-miterlimit:4;stroke-dasharray:none;stroke-opacity:0.94117647;marker-end:url(#marker2187)" />
    <path
       id="path2519"
       d="m 166.33199,221.65625 -11.58544,11.58545 v 46.14474 h 37.14813 v -57.73019 z"
       style="fill:#37474f;fill-opacity:1;stroke:#ffffff;stroke-width:1.15733957;stroke-linecap:square;stroke-linejoin:miter;stroke-miterlimit:4;stroke-dasharray:none;stroke-opacity:1;paint-order:normal"
       inkscape:connector-curvature="0" />
    <path
       style="fill:#37474f;fill-opacity:1;stroke:none;stroke-width:0.69273537;stroke-linecap:square;stroke-linejoin:miter;stroke-miterlimit:4;stroke-dasharray:none;stroke-opacity:1;paint-order:normal"
       d="m 103.13654,238.66301 c -0.44904,0 -0.81015,0.36111 -0.81015,0.81014 v 1.26675 a 7.6099815,7.6099815 0 0 0 -1.26495,0.34403 l -0.63563,-1.10128 c -0.22451,-0.38887 -0.718282,-0.52109 -1.107155,-0.29657 l -0.896939,0.51764 c -0.388875,0.22451 -0.521087,0.71828 -0.29657,1.10716 l 0.636536,1.10218 a 7.6099815,7.6099815 0 0 0 -0.931748,0.92136 l -1.095855,-0.63248 c -0.388875,-0.22452 -0.883094,-0.0918 -1.107611,0.29703 l -0.517637,0.89694 c -0.224518,0.38887 -0.09231,0.88264 0.296567,1.10715 l 1.103995,0.63744 a 7.6099815,7.6099815 0 0 0 -0.340873,1.26267 h -1.272169 c -0.449034,0 -0.810591,0.36157 -0.810591,0.8106 v 1.03573 c 0,0.44903 0.361557,0.81059 0.810591,0.81059 h 1.266743 a 7.6099815,7.6099815 0 0 0 0.344038,1.26403 l -1.101734,0.63608 c -0.388873,0.22452 -0.521085,0.71828 -0.296567,1.10716 l 0.517637,0.89694 c 0.224517,0.38887 0.718736,0.52154 1.107611,0.29702 l 1.102637,-0.63654 a 7.6099815,7.6099815 0 0 0 0.921352,0.93176 l -0.632922,1.09585 c -0.224517,0.38887 -0.0923,0.88264 0.29657,1.10716 l 0.896939,0.51763 c 0.388873,0.22452 0.882645,0.0923 1.107155,-0.29656 l 0.63744,-1.104 a 7.6099815,7.6099815 0 0 0 1.26314,0.34088 v 1.27216 c 0,0.44904 0.36111,0.81059 0.81015,0.81059 h 1.03572 c 0.44904,0 0.81059,-0.36155 0.81059,-0.81059 v -1.26628 a 7.6099815,7.6099815 0 0 0 1.26448,-0.3445 l 0.63609,1.10174 c 0.22452,0.38887 0.71829,0.52108 1.10716,0.29656 l 0.89694,-0.51763 c 0.38887,-0.22452 0.52108,-0.71829 0.29656,-1.10716 l -0.63653,-1.10264 a 7.6099815,7.6099815 0 0 0 0.93175,-0.92135 l 1.09586,0.63292 c 0.38887,0.22452 0.88264,0.0918 1.10715,-0.29702 l 0.5181,-0.89694 c 0.22451,-0.38888 0.0918,-0.88264 -0.29703,-1.10716 l -1.10354,-0.63744 a 7.6099815,7.6099815 0 0 0 0.34042,-1.26267 h 1.27263 c 0.44903,0 0.81058,-0.36156 0.81058,-0.81059 v -1.03573 c 0,-0.44903 -0.36155,-0.8106 -0.81058,-0.8106 h -1.26675 a 7.6099815,7.6099815 0 0 0 -0.34404,-1.26448 l 1.10128,-0.63563 c 0.38888,-0.22451 0.52154,-0.71828 0.29703,-1.10715 l -0.5181,-0.89694 c -0.22451,-0.38888 -0.71828,-0.52155 -1.10715,-0.29703 l -1.10264,0.63654 a 7.6099815,7.6099815 0 0 0 -0.92136,-0.93174 l 0.63292,-1.09586 c 0.22452,-0.38888 0.0923,-0.88265 -0.29656,-1.10716 l -0.89694,-0.51764 c -0.38887,-0.22452 -0.88264,-0.0923 -1.10716,0.29657 l -0.63744,1.10399 a 7.6099815,7.6099815 0 0 0 -1.26313,-0.34087 v -1.27262 c 0,-0.44903 -0.36155,-0.81014 -0.81059,-0.81014 z"
       id="circle2549"
       inkscape:connector-curvature="0" />
    <path
       style="fill:#ffffff;fill-opacity:1;stroke:none;stroke-width:0.45909092;stroke-linecap:square;stroke-linejoin:miter;stroke-miterlimit:4;stroke-dasharray:none;stroke-opacity:1;paint-order:normal"
       d="m 108.69784,248.2316 a 5.0433021,5.0433021 0 0 1 -5.04331,5.0433 5.0433021,5.0433021 0 0 1 -5.043299,-5.0433 5.0433021,5.0433021 0 0 1 5.043299,-5.0433 5.0433021,5.0433021 0 0 1 5.04331,5.0433 z"
       id="circle2563" />
    <path
       style="fill:#37474f;fill-opacity:1;stroke:none;stroke-width:0.69273549;stroke-linecap:square;stroke-linejoin:miter;stroke-miterlimit:4;stroke-dasharray:none;stroke-opacity:1;paint-order:normal"
       d="m 118.38449,227.39342 c -0.44872,-0.017 -0.82346,0.33068 -0.84043,0.77939 l -0.0479,1.26584 a 7.6099822,7.6099822 0 0 0 -1.27669,0.29612 l -0.59405,-1.12479 c -0.20966,-0.39708 -0.69786,-0.54827 -1.09494,-0.33861 l -0.91594,0.48372 c -0.39708,0.20967 -0.54781,0.69833 -0.33815,1.09541 l 0.59404,1.12524 a 7.6099822,7.6099822 0 0 0 -0.96565,0.88564 l -1.071,-0.67361 c -0.38011,-0.23905 -0.87896,-0.12514 -1.11801,0.25498 l -0.55108,0.87659 c -0.23906,0.38012 -0.1256,0.8785 0.25452,1.11756 l 1.07912,0.67858 a 7.6099822,7.6099822 0 0 0 -0.38879,1.24911 l -1.27081,-0.0479 c -0.44871,-0.017 -0.82392,0.33068 -0.84088,0.7794 l -0.0388,1.03482 c -0.017,0.44871 0.33068,0.82346 0.77939,0.84043 l 1.26539,0.0479 a 7.6099822,7.6099822 0 0 0 0.29611,1.27669 l -1.12479,0.59359 c -0.39708,0.20966 -0.54782,0.69832 -0.33816,1.0954 l 0.48374,0.91593 c 0.20966,0.39708 0.69787,0.54783 1.09495,0.33816 l 1.1257,-0.5945 a 7.6099822,7.6099822 0 0 0 0.88563,0.96612 l -0.67361,1.07098 c -0.23905,0.38012 -0.12559,0.87896 0.25453,1.11801 l 0.87659,0.55109 c 0.38011,0.23906 0.87896,0.12559 1.11801,-0.25452 l 0.67857,-1.07913 a 7.6099822,7.6099822 0 0 0 1.24867,0.3888 l -0.0479,1.27081 c -0.017,0.44871 0.33068,0.82391 0.77939,0.84088 l 1.03528,0.0388 c 0.44871,0.017 0.82346,-0.33068 0.84043,-0.7794 l 0.0479,-1.26538 a 7.6099822,7.6099822 0 0 0 1.2767,-0.29612 l 0.59359,1.12479 c 0.20965,0.39708 0.69787,0.54782 1.09495,0.33816 l 0.91593,-0.48373 c 0.39708,-0.20966 0.54827,-0.69787 0.3386,-1.09495 l -0.59448,-1.1257 a 7.6099822,7.6099822 0 0 0 0.96565,-0.88563 l 1.07144,0.6736 c 0.38011,0.23905 0.87851,0.1256 1.11756,-0.25452 l 0.55154,-0.87659 c 0.23905,-0.38012 0.12514,-0.87896 -0.25497,-1.11801 l -1.07913,-0.67858 a 7.6099822,7.6099822 0 0 0 0.38879,-1.24911 l 1.27127,0.0479 c 0.44871,0.017 0.82346,-0.33023 0.84042,-0.77895 l 0.0394,-1.03527 c 0.017,-0.44872 -0.33068,-0.82346 -0.77939,-0.84043 l -1.26584,-0.0479 a 7.6099822,7.6099822 0 0 0 -0.29612,-1.2767 l 1.12479,-0.59358 c 0.39708,-0.20967 0.54782,-0.69833 0.33816,-1.09541 l -0.48328,-0.91547 c -0.20966,-0.39708 -0.69832,-0.54827 -1.0954,-0.33861 l -1.1257,0.59449 a 7.6099822,7.6099822 0 0 0 -0.88518,-0.96566 l 0.67361,-1.07144 c 0.23905,-0.38011 0.12513,-0.8785 -0.25498,-1.11755 l -0.87659,-0.55155 c -0.38012,-0.23905 -0.87851,-0.12559 -1.11756,0.25453 l -0.67859,1.07912 a 7.6099822,7.6099822 0 0 0 -1.24911,-0.38834 l 0.0479,-1.27126 c 0.017,-0.44872 -0.33068,-0.82346 -0.77939,-0.84043 z"
       id="circle2567"
       inkscape:connector-curvature="0" />
    <path
       transform="rotate(2.1655946)"
       style="fill:#ffffff;fill-opacity:1;stroke:none;stroke-width:0.45909092;stroke-linecap:square;stroke-linejoin:miter;stroke-miterlimit:4;stroke-dasharray:none;stroke-opacity:1;paint-order:normal"
       d="m 132.45366,232.32639 a 5.0433021,5.0433021 0 0 1 -5.0433,5.0433 5.0433021,5.0433021 0 0 1 -5.0433,-5.0433 5.0433021,5.0433021 0 0 1 5.0433,-5.04331 5.0433021,5.0433021 0 0 1 5.0433,5.04331 z"
       id="circle2581" />
    <g
       id="g2592"
       transform="matrix(0.84738297,0,0,0.84738297,-4.9789537,143.49774)">
      <path
         transform="matrix(0.44265978,0.25556975,-0.25556975,0.44265978,148.89843,21.066876)"
         style="fill:#ffffff;fill-opacity:1;stroke:none;stroke-width:0.48531747;stroke-linecap:square;stroke-linejoin:miter;stroke-miterlimit:4;stroke-dasharray:none;stroke-opacity:1;paint-order:normal"
         inkscape:transform-center-x="-2.7050587e-06"
         inkscape:transform-center-y="1.3651027e-06"
         d="m 218.77708,138.50213 -11.21109,6.47272 -11.21108,-6.47272 0,-12.94545 11.21108,-6.47272 11.21109,6.47272 z"
         id="path2175" />
      <path
         transform="matrix(0.44265978,0.25556975,-0.25556975,0.44265978,148.89843,8.5476882)"
         style="fill:#ffffff;fill-opacity:1;stroke:none;stroke-width:0.48531747;stroke-linecap:square;stroke-linejoin:miter;stroke-miterlimit:4;stroke-dasharray:none;stroke-opacity:1;paint-order:normal"
         inkscape:transform-center-x="-2.7050587e-06"
         inkscape:transform-center-y="1.3651027e-06"
         d="m 218.77708,138.50213 -11.21109,6.47272 -11.21108,-6.47272 0,-12.94545 11.21108,-6.47272 11.21109,6.47272 z"
         id="path2585" />
      <path
         transform="matrix(0.44265978,0.25556975,-0.25556975,0.44265978,159.88216,14.807282)"
         style="fill:#ffffff;fill-opacity:1;stroke:none;stroke-width:0.48531747;stroke-linecap:square;stroke-linejoin:miter;stroke-miterlimit:4;stroke-dasharray:none;stroke-opacity:1;paint-order:normal"
         inkscape:transform-center-x="-2.7050587e-06"
         inkscape:transform-center-y="1.3651027e-06"
         d="m 218.77708,138.50213 -11.21109,6.47272 -11.21108,-6.47272 0,-12.94545 11.21108,-6.47272 11.21109,6.47272 z"
         id="path2587" />
    </g>
  </g>
</svg>
