<?xml version="1.0" encoding="UTF-8" standalone="no"?>
<!-- Created with Inkscape (http://www.inkscape.org/) -->

<svg
   xmlns:dc="http://purl.org/dc/elements/1.1/"
   xmlns:cc="http://creativecommons.org/ns#"
   xmlns:rdf="http://www.w3.org/1999/02/22-rdf-syntax-ns#"
   xmlns:svg="http://www.w3.org/2000/svg"
   xmlns="http://www.w3.org/2000/svg"
   xmlns:sodipodi="http://sodipodi.sourceforge.net/DTD/sodipodi-0.dtd"
   xmlns:inkscape="http://www.inkscape.org/namespaces/inkscape"
   width="214.373mm"
   height="31.610001mm"
   viewBox="0 0 214.373 31.610001"
   version="1.1"
   id="svg8"
   sodipodi:docname="name.svg"
   inkscape:version="0.92.2 2405546, 2018-03-11">
  <defs
     id="defs2" />
  <sodipodi:namedview
     id="base"
     pagecolor="#ffffff"
     bordercolor="#666666"
     borderopacity="1.0"
     inkscape:pageopacity="0.0"
     inkscape:pageshadow="2"
     inkscape:zoom="0.98994949"
     inkscape:cx="503.58626"
     inkscape:cy="24.847438"
     inkscape:document-units="mm"
     inkscape:current-layer="layer1"
     showgrid="false"
     inkscape:window-width="1920"
     inkscape:window-height="1051"
     inkscape:window-x="0"
     inkscape:window-y="0"
     inkscape:window-maximized="1" />
  <metadata
     id="metadata5">
    <rdf:RDF>
      <cc:Work
         rdf:about="">
        <dc:format>image/svg+xml</dc:format>
        <dc:type
           rdf:resource="http://purl.org/dc/dcmitype/StillImage" />
        <dc:title></dc:title>
      </cc:Work>
    </rdf:RDF>
  </metadata>
  <g
     inkscape:label="Layer 1"
     inkscape:groupmode="layer"
     id="layer1"
     transform="translate(0,-265.39)">
    <path
       style="font-style:normal;font-variant:normal;font-weight:200;font-stretch:normal;font-size:medium;line-height:1.25;font-family:Phibonacci;-inkscape-font-specification:'Phibonacci Ultra-Light';letter-spacing:0px;word-spacing:0px;fill:#000000;fill-opacity:1;stroke:none;stroke-width:6.19139194"
       d="M 10.771484,69.505859 0,75.726562 V 188.97656 H 36.917969 V 178.20508 H 10.771484 Z m 179.710936,0 c -20.36867,0 -36.91992,16.549264 -36.91992,36.917971 v 82.55273 h 10.77344 v -63.06445 h 26.14648 v -10.77149 h -26.14648 v -8.71679 c 0,-14.427819 11.71867,-26.146486 26.14648,-26.146486 z m 98.92774,0 c -17.98582,0 -32.57813,14.559133 -32.57813,32.544921 0,17.98579 14.59231,32.57617 32.57813,32.57617 h 4.50586 c 12.01229,0 21.77148,9.79237 21.77148,21.80469 0,12.01228 -9.75919,21.77344 -21.77148,21.77344 h -33.80274 l -5.38476,10.77148 h 39.21875 c 17.98579,0 32.54492,-14.59034 32.54492,-32.57617 0,-17.98579 -14.55913,-32.54492 -32.54492,-32.54492 h -4.57032 c -12.01231,0 -21.80468,-9.75916 -21.80468,-21.77149 0,-12.012279 9.79237,-21.806636 21.80468,-21.806636 h 33.70313 L 328.4668,69.505859 Z M 52.917969,93.595703 c -2.970433,0 -5.384766,2.416237 -5.384766,5.386719 v 5.384768 H 58.304688 V 93.595703 Z m -5.384766,21.544917 v 73.83594 h 10.771485 v -73.83594 z m 58.332027,0 c -20.368675,0 -36.919918,16.54927 -36.919918,36.91797 0,20.36867 16.551243,36.91797 36.919918,36.91797 18.67129,0 34.14308,-13.90538 36.5586,-31.92383 h -10.90235 c -2.31759,12.04494 -12.95847,21.15235 -25.65625,21.15235 -8.976578,0 -16.877658,-4.50456 -21.578121,-11.35938 l 57.386721,-23.76367 c -4.04763,-16.02727 -18.57356,-27.94141 -35.8086,-27.94141 z m 230.3711,0 v 45.63282 c 0,15.57029 12.63284,28.20312 28.20312,28.20312 9.36828,0 17.65894,-4.57038 22.81641,-11.62109 5.12481,7.05071 13.41547,11.62109 22.81641,11.62109 15.57025,0 28.20312,-12.63283 28.20312,-28.20312 v -45.63282 h -10.77148 v 45.63282 c 0,9.6294 -7.80224,17.43164 -17.43164,17.43164 -9.62941,0 -17.42969,-7.80224 -17.42969,-17.43164 v -45.63282 h -10.77344 v 45.63282 c 0,9.6294 -7.80026,17.43164 -17.42969,17.43164 -9.62942,0 -17.43164,-7.80224 -17.43164,-17.43164 v -45.63282 z m 149.58984,0 c -20.3687,0 -36.91797,16.54927 -36.91797,36.91797 0,20.36867 16.54927,36.91797 36.91797,36.91797 h 36.91797 v -36.91797 c 0,-20.3687 -16.5493,-36.91797 -36.91797,-36.91797 z m 48.05664,0 v 73.83594 h 10.77149 v -63.06445 h 15.375 c 14.42781,0 26.14648,11.71867 26.14648,26.14648 v 36.91797 h 10.77149 v -36.91797 c 0,-20.3687 -16.54931,-36.91797 -36.91797,-36.91797 z m 92.80469,0 c -11.68592,0 -21.15234,9.46647 -21.15234,21.15235 0,11.68588 9.46642,21.15039 21.15234,21.15039 h 9.98828 c 5.745,0 10.38086,4.63583 10.38086,10.38086 0,5.74499 -4.63586,10.38086 -10.38086,10.38086 h -25.7539 l -5.38672,10.77148 h 31.14062 c 11.68588,0 21.15234,-9.4665 21.15234,-21.15234 0,-11.68588 -9.46646,-21.15234 -21.15234,-21.15234 h -9.98828 c -5.74503,0 -10.38086,-4.63388 -10.38086,-10.37891 0,-5.745 4.63583,-10.38086 10.38086,-10.38086 h 25.75391 l 5.38671,-10.77149 z m 74.77734,0 c -20.3687,0 -36.91797,16.54927 -36.91796,36.91797 0,20.36867 16.54926,36.91797 36.91796,36.91797 20.36867,0 36.91797,-16.5493 36.91797,-36.91797 0,-20.3687 -16.5493,-36.91797 -36.91797,-36.91797 z m 45.69922,0 v 73.83594 h 10.77149 v -63.06445 h 15.375 c 14.42781,0 26.14648,11.71867 26.14648,26.14648 v 36.91797 h 10.77149 v -36.91797 c 0,-20.3687 -16.54927,-36.91797 -36.91797,-36.91797 z m -641.29883,10.77149 c 8.94394,0 16.84251,4.53776 21.54297,11.39258 l -47.265622,19.58398 c -0.293783,-1.5668 -0.423828,-3.16531 -0.423828,-4.83008 0,-14.42781 11.718671,-26.14648 26.14648,-26.14648 z m 379.96094,0 c 14.42778,0 26.14649,11.71867 26.14649,26.14648 v 26.14649 h -26.14649 c -14.42782,0 -26.14648,-11.71867 -26.14648,-26.14649 0,-14.42781 11.71866,-26.14648 26.14648,-26.14648 z m 215.63867,0 c 14.42782,0 26.14649,11.71867 26.14649,26.14648 0,14.42782 -11.71867,26.14649 -26.14649,26.14649 -14.42785,0 -26.14648,-11.71867 -26.14648,-26.14649 0,-14.42781 11.71863,-26.14648 26.14648,-26.14648 z"
       transform="matrix(0.26458333,0,0,0.26458333,0,247)"
       id="path821"
       inkscape:connector-curvature="0" />
  </g>
</svg>
